<?xml version="1.0" encoding="utf-8"?>
<!-- Generator: Adobe Illustrator 18.0.0, SVG Export Plug-In . SVG Version: 6.00 Build 0)  -->
<!DOCTYPE svg PUBLIC "-//W3C//DTD SVG 1.1//EN" "http://www.w3.org/Graphics/SVG/1.1/DTD/svg11.dtd">
<svg version="1.1" id="Layer_1" xmlns="http://www.w3.org/2000/svg" xmlns:xlink="http://www.w3.org/1999/xlink" x="0px" y="0px"
	 viewBox="0 0 156.5 110" enable-background="new 0 0 156.5 110" xml:space="preserve">
<path fill="#B77D2B" d="M132,88.1c-0.4-5.1-1-10.1-1.6-15.2c-0.6-5.3-1.1-10.7-1.7-16c-0.4-3.5-0.6-6.9-1.8-10.3
	c-2.2-6.3-6.7-9.6-13.3-9.4c-5.6,0.2-10.7,2.3-15.5,5c-0.4,0.2-0.9,0-1.3,0c-3.3,0-6.6-0.3-9.9-0.3c-1.6,0-3.3,0-4.9,0
	c-0.5-2-1.4-1.7-3.4-2.1c0-0.3,0-0.7,0-1c0-10.4-0.2-20.5-0.2-30.9h-2.7c0,10.3-0.1,20.6-0.1,31c0,0.3,0,0.6,0,1
	c-2,0.4-2.9,0.9-3.3,2.7c-5.1,0-10.1,0-15.2,0c-0.2,0-0.5-0.1-0.7-0.2c-1.1-0.6-2.1-1.2-3.1-1.7c-4.3-2.1-8.8-3.6-13.7-3.3
	c-3.9,0.2-7.1,1.7-9.5,4.8c-2.6,3.3-3.7,7.2-4.1,11.3c-0.7,6.5-1.4,13-2.1,19.6c-0.5,5-1.1,10-1.5,14.9c-0.3,3.3,0,6.6,1.5,9.7
	c1.9,4,6.3,5.1,9.8,2.4c1.3-1,2.5-2.3,3.4-3.7c2.5-3.9,4.7-8,7.1-11.9c1.5-2.5,3.1-5,4.7-7.6c3.2,4.6,7.3,6.8,12.7,5.5
	c5.5-1.3,8.2-4.4,8.9-10.4c4.6,0,9.1,0,13.6,0c0.6,6,3.2,8.7,8.2,10.2c5.5,1.6,9.9-0.4,13.2-5c4.6,6.2,7.6,13.3,12,19.6
	c0.4,0.6,1.4,1.6,1.7,2c1.4,1.5,3.3,2.7,5.2,2.8c2.9,0.1,5-1.3,6.3-4.3C132,94.3,132.3,91.2,132,88.1z"/>
</svg>
