<?xml version="1.0" encoding="utf-8"?>
<!-- Generator: Adobe Illustrator 18.0.0, SVG Export Plug-In . SVG Version: 6.00 Build 0)  -->
<!DOCTYPE svg PUBLIC "-//W3C//DTD SVG 1.1//EN" "http://www.w3.org/Graphics/SVG/1.1/DTD/svg11.dtd">
<svg version="1.1" id="Layer_1" xmlns="http://www.w3.org/2000/svg" xmlns:xlink="http://www.w3.org/1999/xlink" x="0px" y="0px"
	 viewBox="0 0 75 110" enable-background="new 0 0 75 110" xml:space="preserve">
<path opacity="0.6" fill="#B77D2B" d="M67.6,77.7c-2.4-2.6-4.4-4.1-7.6-5.5c-4.4-2-9-3-13.7-3.6c-0.5-0.1-0.8-0.2-0.8-0.8
	c0-1.4,0-2.5,0.1-3.3c7.9-3.2,13.5-11,13.5-20c0-11.9-9.7-21.6-21.6-21.6S16,32.5,16,44.4c0,9,5.5,16.7,13.3,19.9
	c0.1,0.9,0.1,2,0.1,3.4c0,0.6-0.2,0.8-0.8,0.8c-4.7,0.6-9.3,1.6-13.7,3.6c-3.2,1.4-5.2,3-7.6,5.5c-0.9,0.9-1.9,2-1.9,3.8
	c0,2.7,0,3.2,0.1,5.9c0,2.6,1.3,4.7,3.1,6.4c2.5,2.5,5.7,4,8.9,5.2c5.1,1.8,10.4,2.6,15.8,2.9c0.2,0,0.5,0,0.7,0c1.2,0,2.3,0,3.5,0
	c1,0,2.2,0,3.4,0c0.2,0,0.5,0,0.7,0c5.4-0.4,10.7-1.1,15.8-2.9c3.3-1.2,6.4-2.7,8.9-5.2c1.8-1.8,3.1-3.8,3.1-6.4
	c0-2.7,0.1-3.2,0.1-5.9C69.5,79.7,68.5,78.7,67.6,77.7z M45.7,31c1.5-1.1,4.3,0.1,6.3,2.7c2,2.6,2.4,5.7,0.9,6.8s-4.3-0.1-6.3-2.7
	S44.2,32.1,45.7,31z M37.6,66c1.9,0,3.7-0.2,5.4-0.7c-0.7,6.2-1.2,10-1.6,13c-0.1,0.5-0.2,0.8-0.6,0.9c-1.1,0.4-2.3,0.6-3.3,0.7
	c-1.1,0-2.2-0.3-3.3-0.7c-0.5-0.2-0.6-0.4-0.7-0.9c-0.4-3-0.8-6.8-1.6-13.1C33.8,65.7,35.7,66,37.6,66z M17.7,74.2
	C21.3,72.8,24,72,28,71.7c2.6-0.2,1.6,1.7-0.7,2.4c-2.2,0.6-5.3,1.6-7.3,2.5c-2,0.9-4.9,3.3-3.4,5.1c1.1,1.4,5.2,2.9,7.1,3.4
	c2.7,0.6,8.3,1.5,13.8,1.5c5.4,0,11.1-0.9,13.8-1.5c1.9-0.5,6-2,7.1-3.4c1.5-1.9-1.4-4.2-3.4-5.1c-1.9-0.9-5.1-1.9-7.3-2.5
	c-2.3-0.6-3.3-2.6-0.7-2.4c4,0.3,6.7,1,10.3,2.5c2.4,1,8.8,4.7,7.2,7.6c-0.9,1.6-2.2,2.4-3.6,3.3c-2.8,1.8-5.4,2.6-8.6,3.5
	c-4.9,1.3-10,1.8-14.8,1.8c-5,0-10-0.6-14.9-1.8c-3.2-0.8-5.8-1.6-8.6-3.5c-1.3-0.9-2.7-1.7-3.6-3.3C8.9,78.9,15.3,75.2,17.7,74.2z
	 M63.8,90.6c-1.8,1.9-4.1,3.1-6.5,4.1c-4.3,1.7-8.7,2.6-13.3,3.1c-2.2,0.2-4.4,0.3-6.4,0.3c-2.2,0-4.3-0.1-6.5-0.3
	c-4.6-0.4-9-1.3-13.3-3.1c-2.4-1-4.7-2.2-6.5-4.1c-1-1-1.6-2.2-1.6-3.6c0-0.8,0-1.7,0-2.7c0.5,0.4,0.9,0.8,1.3,1.1
	c2,1.7,4.3,2.9,6.8,3.8c6.4,2.4,13.1,3.3,19.8,3.3c6.6,0,13.3-0.9,19.7-3.3c2.4-0.9,4.7-2.1,6.7-3.8c0.4-0.3,0.8-0.7,1.3-1.1
	c0,1,0,1.8,0,2.7C65.3,88.4,64.7,89.6,63.8,90.6z"/>
</svg>
