<?xml version="1.0" encoding="utf-8"?>
<!-- Generator: Adobe Illustrator 18.0.0, SVG Export Plug-In . SVG Version: 6.00 Build 0)  -->
<!DOCTYPE svg PUBLIC "-//W3C//DTD SVG 1.1//EN" "http://www.w3.org/Graphics/SVG/1.1/DTD/svg11.dtd">
<svg version="1.1" id="Layer_1" xmlns="http://www.w3.org/2000/svg" xmlns:xlink="http://www.w3.org/1999/xlink" x="0px" y="0px"
	 viewBox="0 0 75 110" enable-background="new 0 0 75 110" xml:space="preserve">
<path opacity="0.9" fill="#B77D2B" d="M67.2,77.7c-2.4-2.6-4.4-4.1-7.6-5.5c-4.4-2-9-3-13.7-3.6c-0.5-0.1-0.7-0.2-0.8-0.8
	c-0.3-2.9-1.9-11.4-3.3-18.9c6.3-1.9,10.8-7.7,10.8-14.5c0-8.4-6.8-15.2-15.2-15.2c-8.4,0-15.2,6.8-15.2,15.2
	c0,6.9,4.6,12.7,10.8,14.5c-1.4,7.6-3,16-3.3,18.9c-0.1,0.6-0.2,0.8-0.8,0.8c-4.7,0.6-9.3,1.6-13.7,3.6c-3.2,1.4-5.2,3-7.6,5.5
	c-0.9,0.9-1.9,2-1.9,3.8c0,2.7,0,3.2,0.1,5.9c0,2.6,1.3,4.7,3.1,6.4c2.5,2.5,5.7,4,8.9,5.2c5.1,1.8,10.4,2.6,15.8,2.9
	c0.2,0,0.5,0,0.7,0c0.9,0,1.8,0,2.6,0c0.3,0,0.5,0,0.8,0c0.8,0,1.7,0,2.6,0c0.2,0,0.5,0,0.7,0c5.4-0.4,10.7-1.1,15.8-2.9
	c3.3-1.2,6.4-2.7,8.9-5.2c1.8-1.8,3.1-3.8,3.1-6.4c0-2.7,0.1-3.2,0.1-5.9C69.1,79.7,68.1,78.7,67.2,77.7z M41.6,23.7
	c0.7-0.9,2.6-0.5,4.2,0.8c1.6,1.3,2.3,3.1,1.5,4c-0.7,0.9-2.6,0.5-4.2-0.8C41.6,26.4,40.9,24.6,41.6,23.7z M36.6,49.5
	c0.3,0,0.6,0,0.9,0c0.3,0,0.6,0,0.9,0c0.9,10.1,2.3,22.5,2.7,28.9c0,0.5-0.2,0.8-0.6,0.9c-1,0.4-2,0.6-2.9,0.6
	c-1-0.1-1.9-0.3-2.9-0.6c-0.5-0.2-0.7-0.4-0.7-0.9C34.4,71.9,35.8,59.6,36.6,49.5z M18.1,74.2c3.6-1.4,6.3-2.2,10.3-2.5
	c2.6-0.2,1.6,1.7-0.7,2.4c-2.2,0.6-5.3,1.6-7.3,2.5c-2,0.9-4.9,3.3-3.4,5.1c1.1,1.4,5.3,2.9,7.2,3.4c2.6,0.6,7.1,1.4,13.1,1.5v0
	c0,0,0.4,0,0.5,0c0.1,0,0.5,0,0.5,0v0c5-0.1,10.3-0.9,12.8-1.5c1.9-0.5,5.9-2,7-3.4c1.5-1.9-1.4-4.2-3.4-5.1
	c-1.9-0.9-5.1-1.9-7.3-2.5c-2.3-0.6-3.3-2.6-0.7-2.4c4,0.3,6.7,1,10.3,2.5c2.4,1,8.8,4.7,7.2,7.6c-0.9,1.6-2.2,2.4-3.6,3.3
	c-2.8,1.8-5.4,2.6-8.6,3.5c-4.8,1.2-9.7,1.8-14.4,1.8c-4.9,0-9.7-0.6-14.4-1.8c-3.2-0.8-5.8-1.6-8.6-3.5c-1.3-0.9-2.7-1.7-3.6-3.3
	C9.3,78.9,15.7,75.2,18.1,74.2z M64.9,87c0,1.4-0.6,2.6-1.6,3.6c-1.8,1.9-4.1,3.1-6.5,4.1c-4.3,1.7-8.7,2.6-13.3,3.1
	c-2,0.2-4.1,0.3-6,0.3c-2,0-4.1-0.1-6.1-0.3c-4.6-0.4-9-1.3-13.3-3.1c-2.4-1-4.7-2.2-6.5-4.1c-1-1-1.6-2.2-1.6-3.6
	c0-0.8,0-1.7,0-2.7c0.5,0.4,0.9,0.8,1.3,1.1c2,1.7,4.4,2.9,6.8,3.8c6.2,2.3,12,3.2,19,3.3v0c0,0,0.4,0,0.5,0c0.1,0,0.5,0,0.5,0v0
	c6-0.1,12.6-1,18.8-3.3c2.4-0.9,4.6-2.1,6.6-3.8c0.4-0.3,0.8-0.7,1.3-1.1C64.9,85.3,64.9,86.1,64.9,87z"/>
</svg>
